<svg width="44" height="44" viewBox="0 0 44 44" fill="none" xmlns="http://www.w3.org/2000/svg">
<path fill-rule="evenodd" clip-rule="evenodd" d="M21.9999 5.42505C12.8459 5.42505 5.42505 12.8459 5.42505 21.9999C5.42505 24.4157 5.94138 26.7088 6.86898 28.7766C7.03851 29.1545 6.86957 29.5983 6.49164 29.7679C6.11371 29.9374 5.66991 29.7685 5.50037 29.3905C4.48785 27.1334 3.92505 24.6314 3.92505 21.9999C3.92505 12.0174 12.0174 3.92505 21.9999 3.92505C27.2371 3.92505 31.9543 6.15318 35.2545 9.71096V6.99185C35.2545 6.57763 35.5903 6.24185 36.0045 6.24185C36.4188 6.24185 36.7545 6.57763 36.7545 6.99185V11.5687C36.7545 11.9829 36.4188 12.3187 36.0045 12.3187H31.1701C30.7559 12.3187 30.4201 11.9829 30.4201 11.5687C30.4201 11.1545 30.7559 10.8187 31.1701 10.8187H34.2356C31.204 7.50304 26.8448 5.42505 21.9999 5.42505ZM37.633 14.4858C38.0137 14.3225 38.4547 14.4987 38.618 14.8793C39.5558 17.0654 40.0748 19.473 40.0748 21.9999C40.0748 31.9824 31.9824 40.0748 21.9999 40.0748C16.8634 40.0748 12.2268 37.9314 8.93702 34.4924V37.0837C8.93702 37.4979 8.60124 37.8337 8.18702 37.8337C7.77281 37.8337 7.43702 37.4979 7.43702 37.0837V32.5616C7.43702 32.1474 7.77281 31.8116 8.18702 31.8116H12.7091C13.1233 31.8116 13.4591 32.1474 13.4591 32.5616C13.4591 32.9758 13.1233 33.3116 12.7091 33.3116H9.88484C12.9109 36.5512 17.2188 38.5748 21.9999 38.5748C31.154 38.5748 38.5748 31.154 38.5748 21.9999C38.5748 19.6801 38.0987 17.4734 37.2395 15.4707C37.0762 15.0901 37.2524 14.6491 37.633 14.4858Z" fill="black"/>
<rect x="16.4727" y="14.7534" width="11.0549" height="17.012" rx="2" stroke="black" stroke-width="1.5" stroke-linecap="round" stroke-linejoin="round"/>
<path d="M25.1527 14.6775L25.1527 13.2354C25.1528 12.6831 24.705 12.2354 24.1527 12.2354H19.8484C19.2962 12.2354 18.8485 12.683 18.8484 13.2353L18.8484 14.6775" stroke="black" stroke-width="1.5" stroke-linecap="round" stroke-linejoin="round"/>
<path d="M19.0601 28.9795H24.9391" stroke="black" stroke-width="1.5" stroke-linecap="round" stroke-linejoin="round"/>
<path d="M19.0601 26.4182H24.9391" stroke="black" stroke-width="1.5" stroke-linecap="round" stroke-linejoin="round"/>
</svg>
