<svg width="44" height="44" viewBox="0 0 44 44" fill="none" xmlns="http://www.w3.org/2000/svg">
<path d="M12.2708 12.6914H8.77873C7.72309 12.6914 6.89273 13.5963 7.08326 14.6346C7.76228 18.335 9.80755 23.4758 13.658 24.1356M31.3493 12.6914H34.9158C35.9715 12.6914 36.8018 13.5963 36.6113 14.6346C35.9323 18.335 33.9545 23.499 30.104 24.1588M23.1736 30.0387V35.6797M20.8138 35.6797V30.0749M12.2708 10.5771V16.6265C12.2708 25.1906 16.5417 30.1351 21.81 30.1351C27.0784 30.1351 31.3493 26.01 31.3493 16.6265V10.5771" stroke="black" stroke-width="1.5" stroke-linecap="round" stroke-linejoin="round"/>
<path d="M21.8151 16.1428C21.7118 16.1428 21.6214 16.1957 21.5698 16.3146L21.0403 18.0588H19.3615C19.1291 18.0588 19.0129 18.3495 19.1807 18.5213L20.5754 19.5519L20.0072 21.2301C19.9685 21.4018 20.1105 21.5604 20.2655 21.5604C20.3042 21.5604 20.3559 21.5472 20.3946 21.5208L21.8151 20.4372L23.2227 21.5208C23.2615 21.5472 23.3131 21.5604 23.3519 21.5604C23.5068 21.5604 23.6489 21.4018 23.5972 21.2168L23.029 19.5387L24.4366 18.5213C24.6045 18.3627 24.5012 18.0588 24.2558 18.0588H22.577L22.0605 16.3146C22.0088 16.1957 21.9184 16.1428 21.8151 16.1428Z" fill="black" stroke="black" stroke-linecap="round" stroke-linejoin="round"/>
<path d="M15.2429 38.2705C15.2429 36.9379 16.3232 35.8577 17.6558 35.8577H26.331C27.6635 35.8577 28.7438 36.9379 28.7438 38.2705V38.2705C28.7438 38.284 28.7329 38.2949 28.7194 38.2949H15.2673C15.2538 38.2949 15.2429 38.284 15.2429 38.2705V38.2705Z" stroke="black" stroke-width="1.5" stroke-linecap="round" stroke-linejoin="round"/>
<rect x="10.9697" y="5.53101" width="21.4559" height="5.03701" rx="2" stroke="black" stroke-width="1.5" stroke-linecap="round" stroke-linejoin="round"/>
</svg>
