<svg width="44" height="44" viewBox="0 0 44 44" fill="none" xmlns="http://www.w3.org/2000/svg">
<path d="M24.6859 37.4425H10.3833C9.27874 37.4425 8.38331 36.547 8.38331 35.4425V19.4853M24.6859 37.4425H33.6888C34.7934 37.4425 35.6888 36.5466 35.6888 35.442C35.6888 29.7813 35.6888 24.6435 35.6888 19.4853M24.6859 37.4425V20.7025M39.8244 16.3789L35.5911 7.08122C35.4287 6.72454 35.0729 6.49561 34.681 6.49561H9.40274C9.01083 6.49561 8.65504 6.72454 8.49264 7.08122L4.25928 16.3789H8.38331H35.6888H39.8244Z" stroke="black" stroke-width="1.5" stroke-linecap="round" stroke-linejoin="round"/>
<path d="M4.25928 16.408V18.4041C4.25928 19.6284 5.25447 20.6209 6.48211 20.6209C7.70975 20.6209 8.70495 19.6284 8.70495 18.4041M8.70495 16.408V18.4041M8.70495 18.4041C8.70495 19.6284 9.70032 20.621 10.928 20.621C12.1556 20.621 13.1508 19.6285 13.1508 18.4042M13.1508 16.408V18.4042M13.1508 18.4042C13.1508 19.6285 14.1457 20.621 15.3733 20.621C16.601 20.621 17.5962 19.6285 17.5962 18.4042M17.5962 16.408V18.4042M17.5962 18.4042C17.5962 19.6285 18.5915 20.621 19.8192 20.621C21.0468 20.621 22.042 19.6285 22.042 18.4042M22.042 16.408V18.4042M22.042 18.4042C22.042 19.6285 23.0371 20.621 24.2648 20.621C25.4924 20.621 26.4876 19.6285 26.4876 18.4042M26.4876 16.408V18.4042M30.9332 16.408V18.4042M26.4876 18.4042C26.4876 19.6285 27.4828 20.621 28.7104 20.621C29.938 20.621 30.9332 19.6285 30.9332 18.4042M30.9332 18.4042C30.9332 19.6285 31.9284 20.621 33.156 20.621C34.3836 20.621 35.3788 19.6285 35.3788 18.4042M35.3788 16.408V18.4042M35.3788 18.4042C35.3788 19.6285 36.374 20.621 37.6016 20.621C38.8292 20.621 39.8244 19.6285 39.8244 18.4042V16.408" stroke="black" stroke-width="1.5" stroke-linecap="round" stroke-linejoin="round"/>
</svg>
