<svg width="44" height="44" viewBox="0 0 44 44" fill="none" xmlns="http://www.w3.org/2000/svg">
<path d="M8.71802 19.6601V35.4425C8.71802 36.547 9.61345 37.4425 10.718 37.4425H24.0508H33.2832C34.3877 37.4425 35.2832 36.5465 35.2832 35.4419C35.2832 29.8126 35.2832 24.8166 35.2832 19.6601M39.7832 16.3789L35.5498 7.08122C35.3874 6.72454 35.0316 6.49561 34.6397 6.49561H9.36148C8.96957 6.49561 8.61378 6.72454 8.45138 7.08122L4.21802 16.3789H8.34205H35.6475H39.7832Z" stroke="black" stroke-width="1.5" stroke-linecap="round" stroke-linejoin="round"/>
<path d="M4.21802 16.408V18.4041C4.21802 19.6284 5.21322 20.6209 6.44085 20.6209C7.66849 20.6209 8.66369 19.6284 8.66369 18.4041M8.66369 16.408V18.4041M8.66369 18.4041C8.66369 19.6284 9.65906 20.621 10.8867 20.621C12.1143 20.621 13.1095 19.6285 13.1095 18.4042M13.1095 16.408V18.4042M13.1095 18.4042C13.1095 19.6285 14.1044 20.621 15.3321 20.621C16.5597 20.621 17.5549 19.6285 17.5549 18.4042M17.5549 16.408V18.4042M17.5549 18.4042C17.5549 19.6285 18.5503 20.621 19.7779 20.621C21.0056 20.621 22.0007 19.6285 22.0007 18.4042M22.0007 16.408V18.4042M22.0007 18.4042C22.0007 19.6285 22.9959 20.621 24.2235 20.621C25.4512 20.621 26.4463 19.6285 26.4463 18.4042M26.4463 16.408V18.4042M30.892 16.408V18.4042M26.4463 18.4042C26.4463 19.6285 27.4415 20.621 28.6691 20.621C29.8968 20.621 30.892 19.6285 30.892 18.4042M30.892 18.4042C30.892 19.6285 31.8871 20.621 33.1147 20.621C34.3424 20.621 35.3376 19.6285 35.3376 18.4042M35.3376 16.408V18.4042M35.3376 18.4042C35.3376 19.6285 36.3327 20.621 37.5603 20.621C38.788 20.621 39.7832 19.6285 39.7832 18.4042V16.408" stroke="black" stroke-width="1.5" stroke-linecap="round" stroke-linejoin="round"/>
<rect x="25.6052" y="24.457" width="5.44175" height="8.5021" rx="1" stroke="black" stroke-width="1.5" stroke-linecap="round" stroke-linejoin="round"/>
</svg>
