<svg width="44" height="44" viewBox="0 0 44 44" fill="none" xmlns="http://www.w3.org/2000/svg">
<path fill-rule="evenodd" clip-rule="evenodd" d="M8.59863 6.59717C7.07985 6.59717 5.84863 7.82839 5.84863 9.34717V17.584V28.9243C5.84863 30.4431 7.07985 31.6743 8.59863 31.6743H13.8368V36.1113C13.8368 36.3899 13.9912 36.6455 14.2378 36.7751C14.4844 36.9048 14.7826 36.887 15.0121 36.729L22.3547 31.6743H35.4008C36.9196 31.6743 38.1508 30.4431 38.1508 28.9243V9.34717C38.1508 7.82838 36.9196 6.59717 35.4008 6.59717H17.3264H8.59863ZM7.34863 9.34717C7.34863 8.65681 7.90828 8.09717 8.59863 8.09717H17.3264H35.4008C36.0911 8.09717 36.6508 8.65681 36.6508 9.34717V28.9243C36.6508 29.6146 36.0911 30.1743 35.4008 30.1743H22.1215C21.9697 30.1743 21.8214 30.2204 21.6963 30.3065L15.3368 34.6844V30.9243C15.3368 30.5101 15.001 30.1743 14.5868 30.1743H8.59863C7.90828 30.1743 7.34863 29.6146 7.34863 28.9243V17.584V9.34717ZM11.9332 16.4738C11.9332 16.0595 12.2689 15.7238 12.6832 15.7238H30.5561C30.9703 15.7238 31.3061 16.0595 31.3061 16.4738C31.3061 16.888 30.9703 17.2238 30.5561 17.2238H12.6832C12.2689 17.2238 11.9332 16.888 11.9332 16.4738ZM11.9332 22.5582C11.9332 22.144 12.2689 21.8082 12.6832 21.8082H24.4717C24.8859 21.8082 25.2217 22.144 25.2217 22.5582C25.2217 22.9724 24.8859 23.3082 24.4717 23.3082H12.6832C12.2689 23.3082 11.9332 22.9724 11.9332 22.5582Z" fill="black"/>
</svg>
