<svg width="44" height="44" viewBox="0 0 44 44" fill="none" xmlns="http://www.w3.org/2000/svg">
<path fill-rule="evenodd" clip-rule="evenodd" d="M9.51009 6.48706C9.51009 5.52056 10.2936 4.73706 11.2601 4.73706H32.6036C33.5701 4.73706 34.3536 5.52056 34.3536 6.48706V23.8774C34.3536 24.2916 34.0178 24.6274 33.6036 24.6274C33.1893 24.6274 32.8536 24.2916 32.8536 23.8774V6.48706C32.8536 6.34899 32.7416 6.23706 32.6036 6.23706H23.7391L23.7391 26.0611C23.7391 26.4753 23.4033 26.8111 22.9891 26.8111C22.5749 26.8111 22.2391 26.4753 22.2391 26.0611L22.2391 20.806C20.4364 20.8009 18.442 20.7968 16.4472 20.7927L16.4433 20.7927H16.4431L16.4398 20.7927L16.4374 20.7927C14.5766 20.7889 12.7156 20.7851 11.0101 20.7805V23.3878C11.0101 23.802 10.6743 24.1378 10.2601 24.1378C9.84588 24.1378 9.51009 23.802 9.51009 23.3878V6.48706ZM22.2391 6.23706L22.2391 19.306C20.4357 19.3009 18.441 19.2968 16.4467 19.2927L16.4463 19.2927H16.4462L16.4423 19.2927H16.4422C14.5792 19.2889 12.7166 19.2851 11.0101 19.2805V6.48706C11.0101 6.34899 11.122 6.23706 11.2601 6.23706H22.2391ZM39.5954 26.0792C38.6964 24.8906 37.2554 25.0891 36.6377 25.3122C36.5118 25.3577 36.4085 25.4169 36.3306 25.4674L27.4863 31.2063C27.4411 31.1683 27.3936 31.1323 27.3438 31.0986L27.3028 31.0708L27.2585 31.0487C25.5428 30.1908 21.3974 28.0665 18.5278 26.4267C15.3997 24.6392 12.5165 25.2336 11.3643 25.8388L11.3274 25.8582L11.293 25.8814L4.64537 30.375C3.83518 30.9227 3.63103 32.0281 4.19215 32.829L7.32892 37.3064C7.87802 38.0901 8.95485 38.2875 9.74621 37.7494L12.2391 36.0543C12.3043 36.0099 12.3866 35.9989 12.4612 36.0247L20.3223 38.7371L20.3254 38.7382C21.4505 39.1368 24.4108 40.0318 27.3672 37.8599C30.0058 35.9215 36.3076 31.3984 39.0742 29.4595L38.6469 28.8499L39.0742 29.4595C39.5092 29.1545 39.8628 28.6353 40.0054 28.0501C40.1541 27.4393 40.0801 26.72 39.5954 26.0792ZM26.7368 32.8077C26.6886 32.5605 26.592 32.419 26.5268 32.3598C24.7687 31.4795 20.6565 29.3707 17.7836 27.7291C15.175 26.2384 12.8675 26.7638 12.0956 27.1494L5.48541 31.6177C5.36967 31.696 5.3405 31.8539 5.42066 31.9683L8.55743 36.4457C8.63587 36.5577 8.78971 36.5859 8.90276 36.509L11.3956 34.8139C11.8522 34.5034 12.4285 34.4266 12.9505 34.6067L20.8176 37.3212L20.8235 37.3233L20.8235 37.3233C21.8364 37.6824 24.1519 38.3607 26.4791 36.6511C29.1267 34.7061 35.4376 30.1765 38.2132 28.2311C38.3305 28.149 38.4858 27.9504 38.548 27.6951C38.6039 27.4654 38.5786 27.2214 38.3991 26.9841C38.2437 26.7787 38.0416 26.6841 37.8099 26.6528C37.5663 26.6198 37.3173 26.6634 37.1569 26.7196L37.1471 26.7258L28.2099 32.5249C28.3121 33.0536 28.2717 33.6587 28.0266 34.1884C27.7056 34.8822 27.1183 35.269 26.5593 35.4517C26.0144 35.6299 25.4276 35.6396 24.9756 35.5164C24.8539 35.4831 24.6828 35.4117 24.5258 35.3436C24.349 35.2669 24.1258 35.1655 23.8703 35.0469C23.3584 34.8091 22.7008 34.4946 21.9922 34.1526C21.338 33.8368 20.6427 33.4986 19.974 33.1734L19.9728 33.1728C19.1851 32.7897 18.4343 32.4245 17.8312 32.1351C17.4578 31.9559 17.3003 31.5078 17.4796 31.1344C17.6588 30.761 18.1068 30.6035 18.4803 30.7828C19.0828 31.072 19.8432 31.4418 20.6374 31.828C21.3072 32.1538 22.001 32.4912 22.6443 32.8018C23.3516 33.1432 24.0008 33.4536 24.5021 33.6864C24.753 33.803 24.963 33.8982 25.1228 33.9676C25.2866 34.0386 25.3585 34.0649 25.369 34.0687L25.3691 34.0688C25.37 34.0691 25.3704 34.0692 25.3703 34.0692C25.5211 34.1103 25.8083 34.1192 26.0931 34.026C26.3638 33.9375 26.5616 33.7824 26.6652 33.5585C26.7592 33.3555 26.7891 33.0761 26.7368 32.8077ZM14.0044 13.145C14.0044 11.6905 15.1835 10.5114 16.6378 10.5114C18.0922 10.5114 19.2712 11.6905 19.2712 13.145C19.2712 14.5996 18.0922 15.7787 16.6378 15.7787C15.1835 15.7787 14.0044 14.5996 14.0044 13.145ZM16.6378 9.01139C14.355 9.01139 12.5044 10.8621 12.5044 13.145C12.5044 15.4279 14.355 17.2787 16.6378 17.2787C18.9207 17.2787 20.7712 15.4279 20.7712 13.145C20.7712 10.8621 18.9207 9.01139 16.6378 9.01139ZM26.1987 13.5353C26.1987 13.1211 25.8629 12.7853 25.4487 12.7853C25.0344 12.7853 24.6987 13.1211 24.6987 13.5353V18.1884C24.6987 18.6026 25.0344 18.9384 25.4487 18.9384C25.8629 18.9384 26.1987 18.6026 26.1987 18.1884V13.5353Z" fill="black"/>
</svg>
